<?xml version="1.0" standalone="no"?>
<!DOCTYPE svg PUBLIC "-//W3C//DTD SVG 20010904//EN"
 "http://www.w3.org/TR/2001/REC-SVG-20010904/DTD/svg10.dtd">
<svg version="1.0" xmlns="http://www.w3.org/2000/svg"
 width="300.000000pt" height="300.000000pt" viewBox="0 0 300.000000 300.000000"
 preserveAspectRatio="xMidYMid meet">

<g transform="translate(0.000000,300.000000) scale(0.100000,-0.100000)"
fill="#276997" stroke="none">
<path d="M794 2076 c-67 -29 -64 -6 -64 -578 l0 -518 28 -30 c34 -39 93 -50
143 -26 63 30 63 30 69 365 l5 304 239 -320 c131 -176 251 -328 266 -337 39
-23 101 -21 134 5 l26 20 57 -22 c82 -31 216 -31 295 0 121 47 219 148 258
266 18 54 21 83 18 163 -4 119 -31 184 -109 267 -100 106 -204 145 -388 145
-100 0 -111 2 -111 18 0 39 17 42 228 42 225 0 253 6 285 59 9 16 17 49 17 74
0 37 -6 51 -30 76 -40 40 -75 43 -405 39 -296 -3 -302 -4 -330 -64 -11 -25
-15 -71 -15 -201 0 -193 7 -215 82 -255 38 -20 63 -23 218 -28 101 -4 188 -12
205 -19 93 -38 139 -154 100 -248 -31 -74 -92 -113 -178 -113 -95 0 -167 69
-184 177 -9 58 -28 89 -68 107 -43 21 -102 14 -133 -15 -12 -10 -25 -19 -29
-18 -4 0 -115 144 -246 320 -143 191 -252 328 -270 340 -37 22 -70 24 -113 5z"/>
</g>
</svg>
